<?xml version="1.0" standalone="no"?>
<!DOCTYPE svg PUBLIC "-//W3C//DTD SVG 20010904//EN"
 "http://www.w3.org/TR/2001/REC-SVG-20010904/DTD/svg10.dtd">
<svg version="1.0" xmlns="http://www.w3.org/2000/svg"
 width="720.000000pt" height="720.000000pt" viewBox="0 0 720.000000 720.000000"
 preserveAspectRatio="xMidYMid meet">
<metadata>
Created by potrace 1.11, written by Peter Selinger 2001-2013
</metadata>
<g transform="translate(0.000000,720.000000) scale(0.100000,-0.100000)"
fill="#000000" stroke="none">
<path d="M3499 7195 c-3 -2 -20 -6 -39 -8 -136 -16 -311 -109 -426 -225 -83
-84 -169 -233 -194 -335 -6 -23 -13 -51 -16 -62 -3 -11 -8 -64 -11 -117 -4
-68 -10 -99 -19 -102 -8 -3 -14 -2 -14 2 0 4 -19 7 -42 6 -24 0 -47 1 -52 4
-4 2 -34 6 -65 7 -32 2 -80 6 -107 9 -27 4 -69 9 -94 11 -162 13 -198 17 -220
20 -52 9 -174 5 -187 -5 -4 -3 -20 -7 -33 -9 -38 -5 -123 -121 -119 -165 0
-11 0 -23 -1 -26 -3 -8 -13 -312 -10 -320 1 -3 3 -12 5 -20 8 -35 41 -116 50
-122 6 -4 7 -8 2 -8 -4 0 0 -17 9 -37 9 -21 17 -44 17 -50 0 -7 48 -62 106
-123 58 -60 111 -116 117 -123 21 -22 54 -47 64 -47 6 0 10 -4 10 -10 0 -5 8
-10 19 -10 10 0 24 -7 31 -15 7 -8 19 -15 26 -15 23 0 16 -20 -11 -30 -34 -13
-216 -123 -295 -179 -36 -25 -109 -81 -163 -126 -54 -44 -109 -89 -123 -99
l-24 -20 -59 55 c-55 50 -59 56 -54 90 4 33 0 41 -37 75 -23 22 -81 77 -129
122 -123 119 -121 118 -174 93 -53 -26 -182 -144 -241 -220 -42 -55 -86 -131
-86 -150 0 -9 88 -97 225 -226 55 -51 63 -56 95 -51 33 5 41 1 98 -55 l63 -60
-58 -82 c-118 -166 -245 -386 -300 -522 -7 -17 -21 -50 -31 -75 -50 -118 -132
-392 -148 -494 -3 -21 -8 -48 -10 -60 -3 -11 -7 -39 -10 -61 -3 -22 -7 -51 -9
-65 -13 -76 -19 -186 -20 -360 0 -218 9 -338 37 -479 5 -30 11 -64 13 -75 1
-12 8 -43 15 -71 6 -27 13 -57 15 -65 14 -62 87 -287 115 -355 116 -274 250
-502 427 -722 67 -83 263 -288 324 -338 13 -11 52 -44 86 -72 138 -114 326
-235 513 -328 195 -98 311 -142 527 -201 96 -26 106 -28 164 -38 19 -3 45 -8
59 -11 32 -7 146 -23 219 -32 128 -15 535 -7 652 12 13 2 41 6 63 10 194 29
484 112 661 191 22 10 42 18 45 19 9 1 213 106 260 133 25 14 66 41 92 59 26
18 50 33 54 33 3 0 51 34 107 76 425 319 732 714 932 1199 33 82 95 263 111
330 4 17 8 35 10 40 19 71 57 288 69 390 13 124 14 513 1 575 -3 14 -7 49 -10
78 -3 29 -7 61 -10 70 -3 9 -7 35 -11 56 -3 21 -7 48 -10 60 -3 12 -7 33 -9
47 -7 47 -56 221 -88 314 -53 157 -132 329 -228 500 -28 50 -157 243 -180 270
-33 39 -32 44 31 105 58 55 65 59 98 54 35 -5 40 -1 180 133 l144 139 -20 44
c-41 91 -169 235 -273 307 -78 54 -85 52 -175 -33 -212 -201 -207 -195 -201
-229 6 -28 0 -37 -53 -88 -32 -31 -63 -57 -68 -57 -5 0 -20 12 -34 26 -32 34
-187 159 -269 215 -258 180 -569 324 -870 405 -83 23 -277 62 -345 69 -33 4
-64 10 -68 15 -5 4 -7 31 -5 60 3 53 3 54 53 79 179 93 310 245 384 446 41
111 49 324 17 442 -33 122 -104 252 -189 344 -87 96 -245 189 -377 224 -59 16
-281 31 -291 20z m216 -160 c250 -48 462 -262 501 -508 17 -106 6 -248 -24
-322 -44 -107 -121 -218 -183 -265 -18 -14 -37 -30 -43 -36 -13 -12 -52 -34
-61 -34 -10 0 -1 90 10 91 6 1 22 10 36 20 l26 19 -1 276 -1 277 -35 18 c-123
64 -517 70 -671 11 -58 -23 -57 -19 -57 -304 0 -145 4 -270 9 -279 4 -9 22
-22 39 -29 27 -11 30 -17 30 -56 0 -24 -4 -44 -8 -44 -13 0 -93 59 -124 91
-24 24 -28 38 -29 86 -1 75 -6 178 -9 178 -1 0 -3 12 -4 28 -1 15 2 27 7 27 4
0 4 8 -1 17 -11 18 -21 21 -97 29 -27 3 -52 7 -54 9 -9 10 -6 136 5 195 17 89
35 136 81 211 80 131 177 210 328 269 81 32 234 43 330 25z m-427 -1396 c2
-29 0 -55 -5 -60 -4 -4 -36 -10 -70 -14 -61 -6 -63 -6 -64 17 0 13 -2 60 -3
105 l-4 83 72 -40 71 -39 3 -52z"/>
</g>
</svg>
